PathFileType	4	(X/Y/Z)	/Users/mathieubourgeois/Desktop/Analyse/Traitement/Sujet_03/Data/Transformed_Sujet_03_velo_60.trc
DataRate	CameraRate	NumFrames	NumMarkers	Units	OrigDataRate	OrigDataStartFrame	OrigNumFrames
120.000000	120.000000	4	36	mm	120.000000	695	1854
Frame#	Time	RFHD			LFHD			RBHD			LBHD			C7			CLAV			RSHO			LSHO			STRN			T10			RBWT			LBWT			RFWT			LFWT			RKNI			LKNI			RKNE			LKNE			LANI			RANI			LANE			RANE			LTOE			RTOE			LHEE			RHEE			RHUM			LHUM			RRAD			LRAD			RWRA			RWRB			LWRA			LWRB			LCAR			RCAR			
		X1	Y1	Z1	X2	Y2	Z2	X3	Y3	Z3	X4	Y4	Z4	X5	Y5	Z5	X6	Y6	Z6	X7	Y7	Z7	X8	Y8	Z8	X9	Y9	Z9	X10	Y10	Z10	X11	Y11	Z11	X12	Y12	Z12	X13	Y13	Z13	X14	Y14	Z14	X15	Y15	Z15	X16	Y16	Z16	X17	Y17	Z17	X18	Y18	Z18	X19	Y19	Z19	X20	Y20	Z20	X21	Y21	Z21	X22	Y22	Z22	X23	Y23	Z23	X24	Y24	Z24	X25	Y25	Z25	X26	Y26	Z26	X27	Y27	Z27	X28	Y28	Z28	X29	Y29	Z29	X30	Y30	Z30	X31	Y31	Z31	X32	Y32	Z32	X33	Y33	Z33	X34	Y34	Z34	X35	Y35	Z35	X36	Y36	Z36	

696	5.791666666666667	150.4416198730469	1566.796630859375	102.0980148315429	130.0811462402344	1561.813842773438	-50.02562332153328	40.76953506469725	1640.190673828125	117.8958053588866	12.65634441375733	1651.68798828125	-28.67194175720225	-113.3258361816406	1558.70361328125	46.25979232788075	-81.5650634765625	1406.195068359375	43.55367279052725	-54.92567062377933	1478.890014648438	222.5985260009765	-85.69491577148436	1502.338134765625	-144.7544708251954	-178.6358795166016	1267.585693359375	41.57730484008779	-329.1616516113281	1457.502563476562	49.08720779418932	-520.99560546875	1259.773803710938	122.2172698974608	-525.6942138671875	1259.178344726562	-0.803309023380421	-368.9324951171875	1196.4921875	178.0160827636717	-375.445068359375	1184.359741210938	-64.81809234619152	-63.37450027465822	801.678466796875	121.6053237915038	-120.1573028564453	755.2247314453125	-61.53976058959967	-83.40607452392581	846.196533203125	235.206558227539	-121.2321319580078	801.79296875	-170.8014068603516	-407.2760925292969	512.9371337890625	-51.93841171264656	-140.789291381836	436.3627624511719	118.8951187133789	-437.3984069824219	498.9094543457031	-136.2125091552735	-164.9582061767578	417.1934204101562	208.0226898193359	-316.3648071289062	333.0957641601562	-83.5929794311524	26.88277816772459	320.9918212890625	147.455581665039	-504.2737731933594	521.6627807617188	-92.62890625000009	-235.476806640625	394.0101928710938	164.4049530029296	28.57649230957028	1187.967529296875	225.0065917968749	6.726148605346697	1197.02294921875	-139.8602752685548	80.71334075927732	1211.576416015625	282.0340576171874	55.00322723388674	1228.893310546875	-198.4945526123048	293.4226684570312	1048.596801757812	210.2519226074218	269.8257751464843	1034.579833984375	288.114501953125	247.7036895751953	1060.146606445312	-126.1420364379883	222.1426849365235	1044.173095703125	-200.7288208007813	319.9501953125	1032.615112304688	-223.2537231445313	370.2875976562499	1012.007507324219	305.2330017089844	
697	5.8	150.6968841552734	1566.919555664062	101.5042724609374	130.3762969970703	1561.865234375	-50.61156463623055	41.00097656249999	1640.2939453125	117.2497024536132	12.93275356292725	1651.7421875	-29.35366821289072	-113.0408630371094	1558.770385742188	45.61050796508778	-81.31175231933594	1406.325561523438	43.02208709716788	-54.57729339599612	1479.020751953125	222.005386352539	-85.5569610595703	1502.462646484375	-145.2794342041016	-178.3612670898438	1267.600341796875	41.1326789855956	-328.8603515625	1457.503540039062	48.72591018676744	-520.6099243164062	1259.79443359375	122.4091873168944	-525.50146484375	1259.276000976562	-0.6167546510697827	-368.6921081542969	1196.21484375	178.0491638183592	-375.2850952148438	1184.548095703125	-64.79607391357433	-70.29129791259767	792.6704711914062	120.6963195800781	-114.4476318359375	761.6847534179688	-62.0916481018067	-88.5096130371094	838.3296508789062	234.9070129394531	-116.6364135742187	807.7190551757812	-171.3580322265626	-406.1588439941406	523.328125	-51.12221145629891	-138.4717559814453	426.9206237792969	119.7381057739257	-434.9224243164062	508.7314147949219	-137.1743164062501	-166.2253875732422	407.9336853027344	207.7404632568359	-315.202392578125	342.5505676269531	-83.39924621582037	25.86135292053221	311.4798278808594	147.3006286621093	-502.2345581054688	531.8029174804688	-92.92037963867196	-235.3412780761719	383.467041015625	161.1835784912109	28.70465660095212	1187.981079101562	224.9452056884765	6.852319240570085	1197.113891601562	-140.0977172851563	80.83033752441403	1211.66259765625	281.9326477050781	55.12894058227541	1228.940551757812	-198.8030853271485	293.4717407226562	1048.525390625	210.3199310302734	269.8535461425781	1034.534057617188	288.1770324707031	247.7660369873047	1060.198364257812	-126.1242294311524	222.2313690185547	1044.153198242188	-200.7005615234375	320.0247802734375	1032.587036132812	-223.2039489746094	370.3110351562499	1011.948181152344	305.303955078125	
698	5.808333333333334	150.9760894775391	1567.038696289062	100.8721237182616	130.6549530029297	1561.89697265625	-51.23946380615242	41.28367996215819	1640.421264648438	116.5770034790038	13.22374629974366	1651.781982421875	-30.01802062988291	-112.7931365966797	1558.842529296875	44.98871612548817	-80.94398498535156	1406.394897460938	42.43128967285147	-54.26882553100589	1479.159790039062	221.4281768798827	-85.38845062255858	1502.576171875	-145.8565673828126	-177.9995727539062	1267.639282226562	40.61554336547842	-328.5697937011719	1457.4853515625	48.39947128295885	-520.19140625	1259.808349609375	122.6315383911132	-525.310302734375	1259.396362304688	-0.4124041497708781	-368.4119873046875	1195.891479492188	178.059112548828	-375.1589965820312	1184.714233398438	-64.77365875244152	-75.16609191894533	785.4838256835938	120.446060180664	-110.8452606201172	767.4786987304688	-62.42755126953131	-93.8056564331055	830.6002807617188	234.5435638427734	-111.9601135253906	813.7911376953125	-171.7940979003907	-403.8266296386719	532.8297119140625	-51.20318603515634	-139.9633331298828	417.8458862304688	119.4652862548828	-432.4985046386719	518.1813354492188	-137.2751617431641	-167.9076385498047	398.8685607910156	207.4109191894531	-313.5007934570312	351.9361572265625	-83.21954345703132	24.31332397460936	302.0130310058594	147.1308135986328	-499.8399658203125	541.7081909179688	-93.15769195556649	-236.8123626708985	374.43017578125	160.8102111816406	28.807897567749	1188.0107421875	224.8929595947265	6.963547706604021	1197.181030273438	-140.3630828857423	80.93657684326169	1211.72900390625	281.8300781249999	55.24394989013674	1228.96240234375	-199.1345367431641	293.5061340332031	1048.4609375	210.3660430908203	269.8861694335937	1034.492065429688	288.2510070800781	247.8102722167969	1060.237548828125	-126.1369934082032	222.3197021484375	1044.1171875	-200.7259826660157	320.0855102539062	1032.539306640625	-223.1696319580078	370.3299865722656	1011.876647949219	305.3782653808594	
699	5.816666666666666	151.2480926513672	1567.135864257812	100.2404327392577	130.9131622314453	1561.90771484375	-51.88132476806648	41.57181930541991	1640.543212890625	115.8890075683593	13.4955701828003	1651.811401367188	-30.70843315124522	-112.511360168457	1558.904907226562	44.36548233032216	-80.63812255859375	1406.498779296875	41.85373306274405	-53.89729690551761	1479.324462890625	220.8059844970702	-85.23252105712889	1502.648071289062	-146.3734741210938	-177.5282592773438	1267.683227539062	40.11066818237295	-328.2811889648438	1457.44677734375	48.05759429931627	-519.7802734375	1259.813720703125	122.8550415039061	-525.1076049804688	1259.514892578125	-0.2021649926902278	-368.1184997558594	1195.549926757812	178.0446929931639	-375.0439453125	1184.888549804688	-64.74968719482433	-80.61156463623048	777.4052734375	119.9708633422851	-106.6838684082031	773.3701782226562	-62.70054244995124	-99.21018218994143	822.95703125	234.1667327880859	-107.3694610595703	820.0668334960938	-172.2408142089844	-401.0514526367188	542.2105712890625	-51.30532073974618	-141.9236145019532	408.9989013671875	119.2004165649414	-430.2326049804688	527.2568969726562	-136.4671936035157	-170.0675964355469	390.0015258789062	207.1114501953124	-311.2918090820312	361.2352905273438	-83.04882812500007	22.24096488952635	292.6753540039062	146.9399871826172	-497.4835205078125	551.690673828125	-94.36432647705087	-238.7222595214844	365.7101135253906	160.4445190429687	28.90196990966794	1188.054809570312	224.8452606201171	7.039965152740495	1197.2314453125	-140.6841125488282	81.04668426513669	1211.795776367188	281.7294311523437	55.34552383422854	1228.93505859375	-199.4664306640626	293.55908203125	1048.4013671875	210.4215240478515	269.9098815917968	1034.455932617188	288.3112182617188	247.8543701171875	1060.279174804688	-126.1544723510743	222.3689422607422	1044.072509765625	-200.7518463134766	320.1658020019531	1032.486206054688	-223.1407012939453	370.3500671386718	1011.820678710938	305.43115234375	
